<mxfile host="Electron" agent="Mozilla/5.0 (Windows NT 10.0; Win64; x64) AppleWebKit/537.36 (KHTML, like Gecko) draw.io/26.2.2 Chrome/134.0.6998.178 Electron/35.1.2 Safari/537.36" version="26.2.2">
  <diagram name="Страница — 1" id="lUguvO9q1YCbwz1ahQz8">
    <mxGraphModel dx="1187" dy="891" grid="1" gridSize="10" guides="1" tooltips="1" connect="1" arrows="1" fold="1" page="1" pageScale="1" pageWidth="827" pageHeight="1169" math="0" shadow="0">
      <root>
        <mxCell id="0" />
        <mxCell id="1" parent="0" />
        <mxCell id="KosYXQxXdpCm3GFWoXI4-1" style="edgeStyle=orthogonalEdgeStyle;rounded=0;orthogonalLoop=1;jettySize=auto;html=1;exitX=0.5;exitY=1;exitDx=0;exitDy=0;exitPerimeter=0;entryX=0.5;entryY=0;entryDx=0;entryDy=0;endArrow=none;startFill=0;" edge="1" parent="1" source="KosYXQxXdpCm3GFWoXI4-2" target="KosYXQxXdpCm3GFWoXI4-8">
          <mxGeometry relative="1" as="geometry" />
        </mxCell>
        <mxCell id="KosYXQxXdpCm3GFWoXI4-2" value="Начало" style="strokeWidth=2;html=1;shape=mxgraph.flowchart.terminator;whiteSpace=wrap;" vertex="1" parent="1">
          <mxGeometry x="320" y="30" width="160" height="60" as="geometry" />
        </mxCell>
        <mxCell id="KosYXQxXdpCm3GFWoXI4-3" value="Конец" style="strokeWidth=2;html=1;shape=mxgraph.flowchart.terminator;whiteSpace=wrap;" vertex="1" parent="1">
          <mxGeometry x="320" y="1000" width="160" height="60" as="geometry" />
        </mxCell>
        <mxCell id="KosYXQxXdpCm3GFWoXI4-4" style="edgeStyle=orthogonalEdgeStyle;rounded=0;orthogonalLoop=1;jettySize=auto;html=1;exitX=0.5;exitY=1;exitDx=0;exitDy=0;endArrow=none;startFill=0;" edge="1" parent="1" source="KosYXQxXdpCm3GFWoXI4-5">
          <mxGeometry relative="1" as="geometry">
            <mxPoint x="400" y="329.9999999999999" as="targetPoint" />
          </mxGeometry>
        </mxCell>
        <mxCell id="KosYXQxXdpCm3GFWoXI4-5" value="tube_id_val = segment.old.segment_id" style="rounded=0;whiteSpace=wrap;html=1;" vertex="1" parent="1">
          <mxGeometry x="480" y="210" width="160" height="60" as="geometry" />
        </mxCell>
        <mxCell id="KosYXQxXdpCm3GFWoXI4-6" style="edgeStyle=orthogonalEdgeStyle;rounded=0;orthogonalLoop=1;jettySize=auto;html=1;exitX=1;exitY=0.5;exitDx=0;exitDy=0;entryX=0.5;entryY=0;entryDx=0;entryDy=0;endArrow=none;startFill=0;" edge="1" parent="1" source="KosYXQxXdpCm3GFWoXI4-8" target="KosYXQxXdpCm3GFWoXI4-5">
          <mxGeometry relative="1" as="geometry" />
        </mxCell>
        <mxCell id="KosYXQxXdpCm3GFWoXI4-7" style="edgeStyle=orthogonalEdgeStyle;rounded=0;orthogonalLoop=1;jettySize=auto;html=1;exitX=0;exitY=0.5;exitDx=0;exitDy=0;entryX=0.5;entryY=0;entryDx=0;entryDy=0;" edge="1" parent="1" source="KosYXQxXdpCm3GFWoXI4-8" target="KosYXQxXdpCm3GFWoXI4-10">
          <mxGeometry relative="1" as="geometry" />
        </mxCell>
        <mxCell id="KosYXQxXdpCm3GFWoXI4-8" value="Операция удаления" style="rhombus;whiteSpace=wrap;html=1;" vertex="1" parent="1">
          <mxGeometry x="320" y="120" width="160" height="60" as="geometry" />
        </mxCell>
        <mxCell id="KosYXQxXdpCm3GFWoXI4-9" style="edgeStyle=orthogonalEdgeStyle;rounded=0;orthogonalLoop=1;jettySize=auto;html=1;exitX=0.5;exitY=1;exitDx=0;exitDy=0;entryX=0.5;entryY=0;entryDx=0;entryDy=0;endArrow=none;startFill=0;" edge="1" parent="1" source="KosYXQxXdpCm3GFWoXI4-10" target="KosYXQxXdpCm3GFWoXI4-18">
          <mxGeometry relative="1" as="geometry" />
        </mxCell>
        <mxCell id="KosYXQxXdpCm3GFWoXI4-10" value="tube_id_val = segment.new.segment_id" style="rounded=0;whiteSpace=wrap;html=1;" vertex="1" parent="1">
          <mxGeometry x="160" y="210" width="160" height="60" as="geometry" />
        </mxCell>
        <mxCell id="KosYXQxXdpCm3GFWoXI4-11" value="&lt;div&gt;&lt;br&gt;&lt;/div&gt;&lt;div&gt;&lt;br&gt;&lt;/div&gt;" style="edgeStyle=orthogonalEdgeStyle;rounded=0;orthogonalLoop=1;jettySize=auto;html=1;exitX=0.5;exitY=1;exitDx=0;exitDy=0;entryX=0.5;entryY=0;entryDx=0;entryDy=0;endArrow=none;startFill=0;" edge="1" parent="1" source="KosYXQxXdpCm3GFWoXI4-12" target="KosYXQxXdpCm3GFWoXI4-16">
          <mxGeometry relative="1" as="geometry" />
        </mxCell>
        <mxCell id="KosYXQxXdpCm3GFWoXI4-12" value="Для всех сегментов" style="shape=loopLimit;whiteSpace=wrap;html=1;" vertex="1" parent="1">
          <mxGeometry x="320" y="420" width="160" height="60" as="geometry" />
        </mxCell>
        <mxCell id="KosYXQxXdpCm3GFWoXI4-26" style="edgeStyle=orthogonalEdgeStyle;rounded=0;orthogonalLoop=1;jettySize=auto;html=1;exitX=0.5;exitY=1;exitDx=0;exitDy=0;entryX=0.5;entryY=0;entryDx=0;entryDy=0;endArrow=none;startFill=0;" edge="1" parent="1" source="KosYXQxXdpCm3GFWoXI4-16" target="KosYXQxXdpCm3GFWoXI4-24">
          <mxGeometry relative="1" as="geometry" />
        </mxCell>
        <mxCell id="KosYXQxXdpCm3GFWoXI4-16" value="Получить current_length из tube" style="rounded=0;whiteSpace=wrap;html=1;" vertex="1" parent="1">
          <mxGeometry x="320" y="510" width="160" height="60" as="geometry" />
        </mxCell>
        <mxCell id="KosYXQxXdpCm3GFWoXI4-17" style="edgeStyle=orthogonalEdgeStyle;rounded=0;orthogonalLoop=1;jettySize=auto;html=1;exitX=0.5;exitY=1;exitDx=0;exitDy=0;entryX=0.5;entryY=0;entryDx=0;entryDy=0;endArrow=none;startFill=0;" edge="1" parent="1" source="KosYXQxXdpCm3GFWoXI4-18" target="KosYXQxXdpCm3GFWoXI4-12">
          <mxGeometry relative="1" as="geometry" />
        </mxCell>
        <mxCell id="KosYXQxXdpCm3GFWoXI4-18" value="new_length = 0" style="rounded=0;whiteSpace=wrap;html=1;" vertex="1" parent="1">
          <mxGeometry x="320" y="330" width="160" height="60" as="geometry" />
        </mxCell>
        <mxCell id="KosYXQxXdpCm3GFWoXI4-32" style="edgeStyle=orthogonalEdgeStyle;rounded=0;orthogonalLoop=1;jettySize=auto;html=1;exitX=0.5;exitY=1;exitDx=0;exitDy=0;entryX=0.5;entryY=0;entryDx=0;entryDy=0;endArrow=none;startFill=0;" edge="1" parent="1" source="KosYXQxXdpCm3GFWoXI4-21" target="KosYXQxXdpCm3GFWoXI4-30">
          <mxGeometry relative="1" as="geometry" />
        </mxCell>
        <mxCell id="KosYXQxXdpCm3GFWoXI4-21" value="tube.len = new_length" style="rounded=0;whiteSpace=wrap;html=1;" vertex="1" parent="1">
          <mxGeometry x="480" y="690" width="160" height="60" as="geometry" />
        </mxCell>
        <mxCell id="KosYXQxXdpCm3GFWoXI4-22" style="edgeStyle=orthogonalEdgeStyle;rounded=0;orthogonalLoop=1;jettySize=auto;html=1;exitX=1;exitY=0.5;exitDx=0;exitDy=0;entryX=0.5;entryY=0;entryDx=0;entryDy=0;endArrow=none;startFill=0;" edge="1" source="KosYXQxXdpCm3GFWoXI4-24" target="KosYXQxXdpCm3GFWoXI4-21" parent="1">
          <mxGeometry relative="1" as="geometry" />
        </mxCell>
        <mxCell id="KosYXQxXdpCm3GFWoXI4-24" value="current_length ≠ new_length" style="rhombus;whiteSpace=wrap;html=1;" vertex="1" parent="1">
          <mxGeometry x="320" y="600" width="160" height="60" as="geometry" />
        </mxCell>
        <mxCell id="KosYXQxXdpCm3GFWoXI4-34" style="edgeStyle=orthogonalEdgeStyle;rounded=0;orthogonalLoop=1;jettySize=auto;html=1;exitX=0.5;exitY=1;exitDx=0;exitDy=0;endArrow=none;startFill=0;" edge="1" parent="1" source="KosYXQxXdpCm3GFWoXI4-27">
          <mxGeometry relative="1" as="geometry">
            <mxPoint x="400" y="1000" as="targetPoint" />
          </mxGeometry>
        </mxCell>
        <mxCell id="KosYXQxXdpCm3GFWoXI4-27" value="Возвращаем old" style="rounded=0;whiteSpace=wrap;html=1;" vertex="1" parent="1">
          <mxGeometry x="480" y="880" width="160" height="60" as="geometry" />
        </mxCell>
        <mxCell id="KosYXQxXdpCm3GFWoXI4-28" style="edgeStyle=orthogonalEdgeStyle;rounded=0;orthogonalLoop=1;jettySize=auto;html=1;exitX=1;exitY=0.5;exitDx=0;exitDy=0;entryX=0.5;entryY=0;entryDx=0;entryDy=0;endArrow=none;startFill=0;" edge="1" source="KosYXQxXdpCm3GFWoXI4-30" target="KosYXQxXdpCm3GFWoXI4-27" parent="1">
          <mxGeometry relative="1" as="geometry" />
        </mxCell>
        <mxCell id="KosYXQxXdpCm3GFWoXI4-29" style="edgeStyle=orthogonalEdgeStyle;rounded=0;orthogonalLoop=1;jettySize=auto;html=1;exitX=0;exitY=0.5;exitDx=0;exitDy=0;entryX=0.5;entryY=0;entryDx=0;entryDy=0;" edge="1" source="KosYXQxXdpCm3GFWoXI4-30" target="KosYXQxXdpCm3GFWoXI4-31" parent="1">
          <mxGeometry relative="1" as="geometry" />
        </mxCell>
        <mxCell id="KosYXQxXdpCm3GFWoXI4-30" value="Операция удаления" style="rhombus;whiteSpace=wrap;html=1;" vertex="1" parent="1">
          <mxGeometry x="320" y="790" width="160" height="60" as="geometry" />
        </mxCell>
        <mxCell id="KosYXQxXdpCm3GFWoXI4-31" value="Возвращаем new" style="rounded=0;whiteSpace=wrap;html=1;" vertex="1" parent="1">
          <mxGeometry x="160" y="880" width="160" height="60" as="geometry" />
        </mxCell>
        <mxCell id="KosYXQxXdpCm3GFWoXI4-33" style="edgeStyle=orthogonalEdgeStyle;rounded=0;orthogonalLoop=1;jettySize=auto;html=1;exitX=0.5;exitY=1;exitDx=0;exitDy=0;entryX=0.5;entryY=0;entryDx=0;entryDy=0;entryPerimeter=0;endArrow=none;startFill=0;" edge="1" parent="1" source="KosYXQxXdpCm3GFWoXI4-31" target="KosYXQxXdpCm3GFWoXI4-3">
          <mxGeometry relative="1" as="geometry" />
        </mxCell>
        <mxCell id="KosYXQxXdpCm3GFWoXI4-35" value="Да" style="text;html=1;align=center;verticalAlign=middle;whiteSpace=wrap;rounded=0;" vertex="1" parent="1">
          <mxGeometry x="470" y="130" width="60" height="30" as="geometry" />
        </mxCell>
        <mxCell id="KosYXQxXdpCm3GFWoXI4-36" value="Да" style="text;html=1;align=center;verticalAlign=middle;whiteSpace=wrap;rounded=0;" vertex="1" parent="1">
          <mxGeometry x="470" y="610" width="60" height="30" as="geometry" />
        </mxCell>
        <mxCell id="KosYXQxXdpCm3GFWoXI4-37" value="Да" style="text;html=1;align=center;verticalAlign=middle;whiteSpace=wrap;rounded=0;" vertex="1" parent="1">
          <mxGeometry x="470" y="800" width="60" height="30" as="geometry" />
        </mxCell>
      </root>
    </mxGraphModel>
  </diagram>
</mxfile>
